<svg width="217" height="26" viewBox="0 0 217 26" fill="none" xmlns="http://www.w3.org/2000/svg">
<path d="M13.1562 22.2188C13.1562 22.4583 13.1771 22.6875 13.2188 22.9062C13.2708 23.1146 13.3646 23.2969 13.5 23.4531C13.6458 23.6094 13.8385 23.7344 14.0781 23.8281C14.3281 23.9219 14.651 23.9688 15.0469 23.9688C15.6198 23.9688 16.1458 23.8073 16.625 23.4844C17.1042 23.151 17.5156 22.7292 17.8594 22.2188C18.2031 21.6979 18.4688 21.1198 18.6562 20.4844C18.8438 19.8385 18.9375 19.1979 18.9375 18.5625C18.9375 17.6146 18.8073 16.7812 18.5469 16.0625C18.2969 15.3333 17.9427 14.7188 17.4844 14.2188C17.026 13.7188 16.4844 13.3333 15.8594 13.0625C15.2344 12.7812 14.5573 12.6198 13.8281 12.5781L14.1406 11.7812C14.599 11.8021 15.0365 11.7396 15.4531 11.5938C15.8698 11.4479 16.2344 11.1927 16.5469 10.8281C16.8698 10.4635 17.125 9.97396 17.3125 9.35938C17.5 8.73438 17.5938 7.95312 17.5938 7.01562C17.5938 6.38021 17.5156 5.80729 17.3594 5.29688C17.2031 4.78646 16.9948 4.35938 16.7344 4.01562C16.4844 3.66146 16.1875 3.39062 15.8438 3.20312C15.5104 3.01562 15.1667 2.92188 14.8125 2.92188C14.5938 2.92188 14.3802 2.94792 14.1719 3C13.974 3.05208 13.7969 3.14062 13.6406 3.26562C13.4948 3.39062 13.375 3.55729 13.2812 3.76562C13.1979 3.96354 13.1562 4.21354 13.1562 4.51562V22.2188ZM13.4688 1.64062C16.4896 1.64062 18.7083 2.11458 20.125 3.0625C21.5521 4 22.2656 5.36979 22.2656 7.17188C22.2656 7.61979 22.2135 8.03125 22.1094 8.40625C22.0156 8.78125 21.8906 9.125 21.7344 9.4375C21.5781 9.73958 21.401 10.0104 21.2031 10.25C21.0052 10.4896 20.8021 10.6979 20.5938 10.875C20.1042 11.3021 19.5521 11.6354 18.9375 11.875V12.1094C19.9062 12.224 20.776 12.5156 21.5469 12.9844C21.8698 13.1823 22.1875 13.4323 22.5 13.7344C22.8125 14.026 23.0885 14.3854 23.3281 14.8125C23.5781 15.2292 23.776 15.7188 23.9219 16.2812C24.0781 16.8333 24.1562 17.4688 24.1562 18.1875C24.1562 19.2812 23.9583 20.2656 23.5625 21.1406C23.1667 22.0156 22.5781 22.7604 21.7969 23.375C21.0156 23.9792 20.0417 24.4427 18.875 24.7656C17.7083 25.0885 16.3542 25.25 14.8125 25.25C13.3854 25.25 12.224 25.1615 11.3281 24.9844C10.4323 24.8073 9.73438 24.5521 9.23438 24.2188C8.73438 23.875 8.39062 23.4635 8.20312 22.9844C8.02604 22.5052 7.9375 21.9635 7.9375 21.3594V4.26562C7.9375 3.69271 7.54167 3.40625 6.75 3.40625C6.17708 3.40625 5.59375 3.49479 5 3.67188C4.41667 3.83854 3.88542 4.07292 3.40625 4.375C2.9375 4.66667 2.55208 5.02083 2.25 5.4375C1.94792 5.84375 1.79688 6.28646 1.79688 6.76562C1.79688 7.09896 1.83854 7.36458 1.92188 7.5625C2.01562 7.76042 2.11979 7.91146 2.23438 8.01562C2.34896 8.10938 2.46354 8.17188 2.57812 8.20312C2.70312 8.22396 2.79167 8.23438 2.84375 8.23438C3.10417 8.23438 3.31771 8.19271 3.48438 8.10938C3.65104 8.01562 3.80208 7.92188 3.9375 7.82812C4.07292 7.72396 4.19792 7.63021 4.3125 7.54688C4.4375 7.45312 4.57812 7.40625 4.73438 7.40625C4.85938 7.40625 4.98958 7.4375 5.125 7.5C5.27083 7.55208 5.40104 7.64062 5.51562 7.76562C5.64062 7.89062 5.74479 8.05729 5.82812 8.26562C5.91146 8.46354 5.95312 8.70833 5.95312 9C5.95312 9.41667 5.86979 9.77604 5.70312 10.0781C5.54688 10.3802 5.33854 10.6354 5.07812 10.8438C4.82812 11.0417 4.53646 11.1927 4.20312 11.2969C3.88021 11.3906 3.55729 11.4375 3.23438 11.4375C2.73438 11.4375 2.28125 11.3542 1.875 11.1875C1.47917 11.0104 1.14062 10.7708 0.859375 10.4688C0.578125 10.1667 0.364583 9.8125 0.21875 9.40625C0.0729167 9 0 8.56771 0 8.10938C0 7.24479 0.161458 6.48438 0.484375 5.82812C0.807292 5.16146 1.26042 4.58854 1.84375 4.10938C2.4375 3.63021 3.14583 3.23438 3.96875 2.92188C4.79167 2.59896 5.70312 2.34375 6.70312 2.15625C7.70312 1.96875 8.77083 1.83854 9.90625 1.76562C11.0521 1.68229 12.2396 1.64062 13.4688 1.64062ZM34.1094 16.9062C34.1094 16.6458 34.026 16.4479 33.8594 16.3125C33.6927 16.1771 33.4792 16.1094 33.2188 16.1094C32.8542 16.1094 32.5052 16.1927 32.1719 16.3594C31.849 16.526 31.5625 16.7708 31.3125 17.0938C31.0625 17.4167 30.8646 17.8177 30.7188 18.2969C30.5729 18.7656 30.5 19.3125 30.5 19.9375C30.5 20.5417 30.5417 21.0417 30.625 21.4375C30.7188 21.8333 30.8385 22.151 30.9844 22.3906C31.1406 22.6198 31.3177 22.7812 31.5156 22.875C31.7135 22.9688 31.9219 23.0156 32.1406 23.0156C32.4115 23.0156 32.6667 22.9479 32.9062 22.8125C33.1458 22.6667 33.3542 22.4844 33.5312 22.2656C33.7083 22.0469 33.849 21.8021 33.9531 21.5312C34.0573 21.2604 34.1094 20.9896 34.1094 20.7188V16.9062ZM31.625 10.0625C31.2708 10.0625 30.9427 10.1042 30.6406 10.1875C30.3385 10.2708 30.0781 10.375 29.8594 10.5C29.6406 10.625 29.4688 10.7656 29.3438 10.9219C29.2188 11.0677 29.1562 11.2083 29.1562 11.3438C29.1562 11.5 29.2344 11.6146 29.3906 11.6875C29.5573 11.75 29.7396 11.8281 29.9375 11.9219C30.1354 12.0052 30.3125 12.1302 30.4688 12.2969C30.6354 12.4531 30.7188 12.6979 30.7188 13.0312C30.7188 13.25 30.6719 13.4531 30.5781 13.6406C30.4948 13.8177 30.375 13.9792 30.2188 14.125C30.0729 14.2604 29.8958 14.3698 29.6875 14.4531C29.4896 14.526 29.2812 14.5625 29.0625 14.5625C28.4792 14.5625 28.0052 14.3646 27.6406 13.9688C27.2865 13.5729 27.1094 13.0469 27.1094 12.3906C27.1094 11.7552 27.276 11.2135 27.6094 10.7656C27.9427 10.3073 28.375 9.93229 28.9062 9.64062C29.4479 9.34896 30.0573 9.13542 30.7344 9C31.4115 8.85417 32.0885 8.78125 32.7656 8.78125C33.5781 8.78125 34.3542 8.86979 35.0938 9.04688C35.8333 9.22396 36.4844 9.50521 37.0469 9.89062C37.6198 10.276 38.0729 10.7656 38.4062 11.3594C38.75 11.9531 38.9219 12.6719 38.9219 13.5156V22.3438C38.9219 22.4375 38.9271 22.5417 38.9375 22.6562C38.9479 22.7708 38.974 22.875 39.0156 22.9688C39.0573 23.0625 39.1198 23.1406 39.2031 23.2031C39.2865 23.2656 39.4062 23.2969 39.5625 23.2969C39.75 23.2969 39.9219 23.2292 40.0781 23.0938C40.2448 22.9479 40.3906 22.8021 40.5156 22.6562L40.9062 22.9844C40.75 23.2031 40.5625 23.4427 40.3438 23.7031C40.125 23.9635 39.8594 24.2083 39.5469 24.4375C39.2344 24.6667 38.8698 24.8594 38.4531 25.0156C38.0365 25.1719 37.5625 25.25 37.0312 25.25C36.375 25.25 35.7917 25.0573 35.2812 24.6719C34.7708 24.276 34.4375 23.6719 34.2812 22.8594C33.9479 23.3073 33.599 23.6823 33.2344 23.9844C32.8802 24.2865 32.5156 24.5312 32.1406 24.7188C31.7656 24.9062 31.3854 25.0417 31 25.125C30.625 25.2083 30.2448 25.25 29.8594 25.25C29.3594 25.25 28.875 25.1719 28.4062 25.0156C27.9375 24.8594 27.5156 24.6146 27.1406 24.2812C26.776 23.9375 26.4792 23.4948 26.25 22.9531C26.0312 22.4115 25.9219 21.75 25.9219 20.9688C25.9219 20.0208 26.1094 19.2448 26.4844 18.6406C26.8594 18.0365 27.349 17.5312 27.9531 17.125C28.5677 16.7083 29.2604 16.3542 30.0312 16.0625C30.8125 15.7708 31.6094 15.4635 32.4219 15.1406C33.026 14.901 33.4635 14.5469 33.7344 14.0781C34.0156 13.599 34.1562 13.1094 34.1562 12.6094C34.1562 11.8385 33.9271 11.224 33.4688 10.7656C33.0208 10.2969 32.4062 10.0625 31.625 10.0625ZM48 12.0781C48.3958 11.474 48.8177 10.9271 49.2656 10.4375C49.4531 10.2292 49.6562 10.026 49.875 9.82812C50.0938 9.63021 50.3177 9.45312 50.5469 9.29688C50.7865 9.14062 51.0312 9.01562 51.2812 8.92188C51.5312 8.82812 51.7812 8.78125 52.0312 8.78125C52.5625 8.78125 52.9792 8.94271 53.2812 9.26562C53.5833 9.57812 53.7344 10.0208 53.7344 10.5938C53.7344 10.9479 53.7031 11.2917 53.6406 11.625C53.5885 11.9479 53.4792 12.3438 53.3125 12.8125H52.875C52.8125 12.4896 52.6667 12.224 52.4375 12.0156C52.2083 11.7969 51.875 11.6875 51.4375 11.6875C51.1146 11.6875 50.7969 11.75 50.4844 11.875C50.1719 11.9896 49.8646 12.1354 49.5625 12.3125C49.2708 12.4896 48.9896 12.6823 48.7188 12.8906C48.4583 13.099 48.2188 13.2969 48 13.4844V23.625C48 23.7604 47.9792 23.9219 47.9375 24.1094C47.8958 24.2969 47.7917 24.474 47.625 24.6406C47.4688 24.8073 47.2292 24.9479 46.9062 25.0625C46.5938 25.1875 46.1615 25.25 45.6094 25.25C45.0573 25.25 44.6198 25.1823 44.2969 25.0469C43.9844 24.9219 43.7448 24.7708 43.5781 24.5938C43.4115 24.4167 43.3073 24.2344 43.2656 24.0469C43.224 23.8594 43.2031 23.7083 43.2031 23.5938V11.5312C43.2031 11.2292 43.1302 10.9688 42.9844 10.75C42.849 10.5208 42.6146 10.4062 42.2812 10.4062C42.1042 10.4062 41.9531 10.4375 41.8281 10.5C41.7031 10.5625 41.5677 10.651 41.4219 10.7656L41.0938 10.375C41.3333 10.1771 41.599 9.98438 41.8906 9.79688C42.1927 9.59896 42.5156 9.42708 42.8594 9.28125C43.2031 9.13542 43.5729 9.01562 43.9688 8.92188C44.3646 8.82812 44.7812 8.78125 45.2188 8.78125C45.6667 8.78125 46.0469 8.84375 46.3594 8.96875C46.6823 9.08333 46.9427 9.23958 47.1406 9.4375C47.349 9.625 47.5104 9.83854 47.625 10.0781C47.7396 10.3177 47.8229 10.5625 47.875 10.8125C47.9375 11.0521 47.974 11.2865 47.9844 11.5156C47.9948 11.7344 48 11.9219 48 12.0781ZM64.5312 17.2188C64.5312 16.3125 64.4844 15.4635 64.3906 14.6719C64.2969 13.8698 64.1458 13.1719 63.9375 12.5781C63.7292 11.974 63.4635 11.5 63.1406 11.1562C62.8177 10.8021 62.4271 10.625 61.9688 10.625C61.6146 10.625 61.3125 10.7135 61.0625 10.8906C60.8229 11.0573 60.625 11.25 60.4688 11.4688C60.3125 11.6875 60.1979 11.9062 60.125 12.125C60.0521 12.3333 60.0156 12.474 60.0156 12.5469V17.2188C60.0156 19.4896 60.2031 21.1406 60.5781 22.1719C60.9635 23.2031 61.526 23.7188 62.2656 23.7188C63.0469 23.7188 63.6198 23.1927 63.9844 22.1406C64.349 21.0885 64.5312 19.4479 64.5312 17.2188ZM55.2188 3.4375C55.2188 3.13542 55.1458 2.875 55 2.65625C54.8646 2.42708 54.6302 2.3125 54.2969 2.3125C54.1198 2.3125 53.9635 2.34375 53.8281 2.40625C53.7031 2.45833 53.5677 2.54167 53.4219 2.65625L53.1094 2.28125C53.349 2.08333 53.6146 1.89062 53.9062 1.70312C54.2083 1.50521 54.5312 1.33333 54.875 1.1875C55.2188 1.04167 55.5885 0.921875 55.9844 0.828125C56.3802 0.734375 56.7969 0.6875 57.2344 0.6875C57.8385 0.6875 58.3229 0.78125 58.6875 0.96875C59.0625 1.14583 59.3438 1.36979 59.5312 1.64062C59.7292 1.90104 59.8594 2.1875 59.9219 2.5C59.9844 2.80208 60.0156 3.08333 60.0156 3.34375V10.3125C60.1406 10.1979 60.3021 10.0573 60.5 9.89062C60.6979 9.71354 60.9479 9.54167 61.25 9.375C61.5521 9.20833 61.9115 9.06771 62.3281 8.95312C62.7552 8.83854 63.2552 8.78125 63.8281 8.78125C64.4948 8.78125 65.1615 8.9375 65.8281 9.25C66.4948 9.55208 67.0938 10.0312 67.625 10.6875C68.1562 11.3438 68.5885 12.1875 68.9219 13.2188C69.2552 14.25 69.4219 15.4896 69.4219 16.9375C69.4219 18.0729 69.2656 19.1458 68.9531 20.1562C68.651 21.1667 68.1979 22.0521 67.5938 22.8125C66.9896 23.5625 66.2344 24.1562 65.3281 24.5938C64.4219 25.0312 63.3698 25.25 62.1719 25.25C60.8698 25.25 59.7708 25.0417 58.875 24.625C57.9896 24.1979 57.276 23.6302 56.7344 22.9219C56.1927 22.2031 55.8021 21.3698 55.5625 20.4219C55.3333 19.474 55.2188 18.474 55.2188 17.4219V3.4375ZM76.4844 17.8281C76.4844 18.1615 76.5312 18.526 76.625 18.9219C76.7292 19.3073 76.875 19.6979 77.0625 20.0938C77.25 20.4896 77.4792 20.8698 77.75 21.2344C78.0312 21.5885 78.349 21.9062 78.7031 22.1875C79.0677 22.4688 79.4688 22.6927 79.9062 22.8594C80.3438 23.026 80.8229 23.1094 81.3438 23.1094C81.7083 23.1094 82.0469 23.0677 82.3594 22.9844C82.6719 22.901 82.9635 22.7865 83.2344 22.6406C83.5052 22.4948 83.7656 22.3281 84.0156 22.1406C84.2656 21.9427 84.5156 21.7344 84.7656 21.5156L85.1562 21.8906C84.9167 22.2135 84.6094 22.5677 84.2344 22.9531C83.8594 23.3385 83.4062 23.7031 82.875 24.0469C82.3438 24.3802 81.724 24.6615 81.0156 24.8906C80.3073 25.1094 79.5 25.2188 78.5938 25.2188C77.6875 25.2188 76.8021 25.0573 75.9375 24.7344C75.0833 24.401 74.3229 23.9062 73.6562 23.25C72.9896 22.5938 72.4531 21.776 72.0469 20.7969C71.651 19.8177 71.4531 18.6719 71.4531 17.3594C71.4531 16.4115 71.5729 15.5417 71.8125 14.75C72.0521 13.9583 72.375 13.2448 72.7812 12.6094C73.1979 11.974 73.6771 11.4167 74.2188 10.9375C74.7708 10.4583 75.349 10.0625 75.9531 9.75C76.5573 9.42708 77.1719 9.1875 77.7969 9.03125C78.4323 8.86458 79.0417 8.78125 79.625 8.78125C80.3958 8.78125 81.0677 8.86458 81.6406 9.03125C82.2135 9.19792 82.6875 9.42188 83.0625 9.70312C83.4479 9.98438 83.7344 10.3125 83.9219 10.6875C84.1094 11.0521 84.2031 11.4375 84.2031 11.8438C84.2031 12.3333 84.0625 12.776 83.7812 13.1719C83.5 13.5573 83.125 13.8958 82.6562 14.1875L76.4844 17.8281ZM79.625 14.6562C79.7604 14.5729 79.8698 14.4948 79.9531 14.4219C80.0469 14.3385 80.1198 14.2448 80.1719 14.1406C80.224 14.026 80.2604 13.8906 80.2812 13.7344C80.3125 13.5677 80.3281 13.3646 80.3281 13.125C80.3281 12.8646 80.2969 12.5781 80.2344 12.2656C80.1823 11.9427 80.0885 11.6406 79.9531 11.3594C79.8177 11.0781 79.6458 10.8438 79.4375 10.6562C79.2292 10.4688 78.9792 10.375 78.6875 10.375C78.3125 10.375 77.9896 10.4896 77.7188 10.7188C77.4583 10.9375 77.2396 11.224 77.0625 11.5781C76.8958 11.9323 76.7604 12.3385 76.6562 12.7969C76.5625 13.2448 76.4896 13.6979 76.4375 14.1562C76.3854 14.6146 76.3542 15.0573 76.3438 15.4844C76.3333 15.901 76.3281 16.2552 76.3281 16.5469L79.625 14.6562ZM94.2969 16.9062C94.2969 16.6458 94.2135 16.4479 94.0469 16.3125C93.8802 16.1771 93.6667 16.1094 93.4062 16.1094C93.0417 16.1094 92.6927 16.1927 92.3594 16.3594C92.0365 16.526 91.75 16.7708 91.5 17.0938C91.25 17.4167 91.0521 17.8177 90.9062 18.2969C90.7604 18.7656 90.6875 19.3125 90.6875 19.9375C90.6875 20.5417 90.7292 21.0417 90.8125 21.4375C90.9062 21.8333 91.026 22.151 91.1719 22.3906C91.3281 22.6198 91.5052 22.7812 91.7031 22.875C91.901 22.9688 92.1094 23.0156 92.3281 23.0156C92.599 23.0156 92.8542 22.9479 93.0938 22.8125C93.3333 22.6667 93.5417 22.4844 93.7188 22.2656C93.8958 22.0469 94.0365 21.8021 94.1406 21.5312C94.2448 21.2604 94.2969 20.9896 94.2969 20.7188V16.9062ZM91.8125 10.0625C91.4583 10.0625 91.1302 10.1042 90.8281 10.1875C90.526 10.2708 90.2656 10.375 90.0469 10.5C89.8281 10.625 89.6562 10.7656 89.5312 10.9219C89.4062 11.0677 89.3438 11.2083 89.3438 11.3438C89.3438 11.5 89.4219 11.6146 89.5781 11.6875C89.7448 11.75 89.9271 11.8281 90.125 11.9219C90.3229 12.0052 90.5 12.1302 90.6562 12.2969C90.8229 12.4531 90.9062 12.6979 90.9062 13.0312C90.9062 13.25 90.8594 13.4531 90.7656 13.6406C90.6823 13.8177 90.5625 13.9792 90.4062 14.125C90.2604 14.2604 90.0833 14.3698 89.875 14.4531C89.6771 14.526 89.4688 14.5625 89.25 14.5625C88.6667 14.5625 88.1927 14.3646 87.8281 13.9688C87.474 13.5729 87.2969 13.0469 87.2969 12.3906C87.2969 11.7552 87.4635 11.2135 87.7969 10.7656C88.1302 10.3073 88.5625 9.93229 89.0938 9.64062C89.6354 9.34896 90.2448 9.13542 90.9219 9C91.599 8.85417 92.276 8.78125 92.9531 8.78125C93.7656 8.78125 94.5417 8.86979 95.2812 9.04688C96.0208 9.22396 96.6719 9.50521 97.2344 9.89062C97.8073 10.276 98.2604 10.7656 98.5938 11.3594C98.9375 11.9531 99.1094 12.6719 99.1094 13.5156V22.3438C99.1094 22.4375 99.1146 22.5417 99.125 22.6562C99.1354 22.7708 99.1615 22.875 99.2031 22.9688C99.2448 23.0625 99.3073 23.1406 99.3906 23.2031C99.474 23.2656 99.5938 23.2969 99.75 23.2969C99.9375 23.2969 100.109 23.2292 100.266 23.0938C100.432 22.9479 100.578 22.8021 100.703 22.6562L101.094 22.9844C100.938 23.2031 100.75 23.4427 100.531 23.7031C100.312 23.9635 100.047 24.2083 99.7344 24.4375C99.4219 24.6667 99.0573 24.8594 98.6406 25.0156C98.224 25.1719 97.75 25.25 97.2188 25.25C96.5625 25.25 95.9792 25.0573 95.4688 24.6719C94.9583 24.276 94.625 23.6719 94.4688 22.8594C94.1354 23.3073 93.7865 23.6823 93.4219 23.9844C93.0677 24.2865 92.7031 24.5312 92.3281 24.7188C91.9531 24.9062 91.5729 25.0417 91.1875 25.125C90.8125 25.2083 90.4323 25.25 90.0469 25.25C89.5469 25.25 89.0625 25.1719 88.5938 25.0156C88.125 24.8594 87.7031 24.6146 87.3281 24.2812C86.9635 23.9375 86.6667 23.4948 86.4375 22.9531C86.2188 22.4115 86.1094 21.75 86.1094 20.9688C86.1094 20.0208 86.2969 19.2448 86.6719 18.6406C87.0469 18.0365 87.5365 17.5312 88.1406 17.125C88.7552 16.7083 89.4479 16.3542 90.2188 16.0625C91 15.7708 91.7969 15.4635 92.6094 15.1406C93.2135 14.901 93.651 14.5469 93.9219 14.0781C94.2031 13.599 94.3438 13.1094 94.3438 12.6094C94.3438 11.8385 94.1146 11.224 93.6562 10.7656C93.2083 10.2969 92.5938 10.0625 91.8125 10.0625ZM108.188 12.0781C108.583 11.474 109.005 10.9271 109.453 10.4375C109.641 10.2292 109.844 10.026 110.062 9.82812C110.281 9.63021 110.505 9.45312 110.734 9.29688C110.974 9.14062 111.219 9.01562 111.469 8.92188C111.719 8.82812 111.969 8.78125 112.219 8.78125C112.75 8.78125 113.167 8.94271 113.469 9.26562C113.771 9.57812 113.922 10.0208 113.922 10.5938C113.922 10.9479 113.891 11.2917 113.828 11.625C113.776 11.9479 113.667 12.3438 113.5 12.8125H113.062C113 12.4896 112.854 12.224 112.625 12.0156C112.396 11.7969 112.062 11.6875 111.625 11.6875C111.302 11.6875 110.984 11.75 110.672 11.875C110.359 11.9896 110.052 12.1354 109.75 12.3125C109.458 12.4896 109.177 12.6823 108.906 12.8906C108.646 13.099 108.406 13.2969 108.188 13.4844V23.625C108.188 23.7604 108.167 23.9219 108.125 24.1094C108.083 24.2969 107.979 24.474 107.812 24.6406C107.656 24.8073 107.417 24.9479 107.094 25.0625C106.781 25.1875 106.349 25.25 105.797 25.25C105.245 25.25 104.807 25.1823 104.484 25.0469C104.172 24.9219 103.932 24.7708 103.766 24.5938C103.599 24.4167 103.495 24.2344 103.453 24.0469C103.411 23.8594 103.391 23.7083 103.391 23.5938V11.5312C103.391 11.2292 103.318 10.9688 103.172 10.75C103.036 10.5208 102.802 10.4062 102.469 10.4062C102.292 10.4062 102.141 10.4375 102.016 10.5C101.891 10.5625 101.755 10.651 101.609 10.7656L101.281 10.375C101.521 10.1771 101.786 9.98438 102.078 9.79688C102.38 9.59896 102.703 9.42708 103.047 9.28125C103.391 9.13542 103.76 9.01562 104.156 8.92188C104.552 8.82812 104.969 8.78125 105.406 8.78125C105.854 8.78125 106.234 8.84375 106.547 8.96875C106.87 9.08333 107.13 9.23958 107.328 9.4375C107.536 9.625 107.698 9.83854 107.812 10.0781C107.927 10.3177 108.01 10.5625 108.062 10.8125C108.125 11.0521 108.161 11.2865 108.172 11.5156C108.182 11.7344 108.188 11.9219 108.188 12.0781ZM120.906 23.5938C120.906 23.7292 120.88 23.8958 120.828 24.0938C120.786 24.2812 120.677 24.4635 120.5 24.6406C120.333 24.8073 120.089 24.9479 119.766 25.0625C119.443 25.1875 119.005 25.25 118.453 25.25C117.901 25.25 117.469 25.1823 117.156 25.0469C116.844 24.9219 116.609 24.7708 116.453 24.5938C116.297 24.4167 116.198 24.2344 116.156 24.0469C116.125 23.8594 116.109 23.7083 116.109 23.5938V11.5312C116.109 11.2292 116.036 10.9688 115.891 10.75C115.755 10.5208 115.521 10.4062 115.188 10.4062C115.01 10.4062 114.859 10.4375 114.734 10.5C114.609 10.5625 114.474 10.651 114.328 10.7656L114 10.375C114.24 10.1771 114.505 9.98438 114.797 9.79688C115.099 9.59896 115.422 9.42708 115.766 9.28125C116.109 9.13542 116.479 9.01562 116.875 8.92188C117.271 8.82812 117.688 8.78125 118.125 8.78125C118.802 8.78125 119.328 8.875 119.703 9.0625C120.078 9.23958 120.354 9.46354 120.531 9.73438C120.708 9.99479 120.812 10.276 120.844 10.5781C120.885 10.8802 120.906 11.1458 120.906 11.375V23.5938ZM115.625 5.21875C115.625 4.92708 115.688 4.65104 115.812 4.39062C115.948 4.11979 116.13 3.88542 116.359 3.6875C116.599 3.48958 116.87 3.33333 117.172 3.21875C117.484 3.10417 117.823 3.04688 118.188 3.04688C118.542 3.04688 118.87 3.10417 119.172 3.21875C119.484 3.33333 119.755 3.48958 119.984 3.6875C120.214 3.88542 120.391 4.11979 120.516 4.39062C120.651 4.65104 120.719 4.92708 120.719 5.21875C120.719 5.52083 120.651 5.80208 120.516 6.0625C120.391 6.32292 120.214 6.55208 119.984 6.75C119.755 6.9375 119.484 7.08854 119.172 7.20312C118.87 7.31771 118.542 7.375 118.188 7.375C117.823 7.375 117.484 7.31771 117.172 7.20312C116.87 7.08854 116.599 6.9375 116.359 6.75C116.13 6.55208 115.948 6.32292 115.812 6.0625C115.688 5.80208 115.625 5.52083 115.625 5.21875ZM131.891 16.9062C131.891 16.6458 131.807 16.4479 131.641 16.3125C131.474 16.1771 131.26 16.1094 131 16.1094C130.635 16.1094 130.286 16.1927 129.953 16.3594C129.63 16.526 129.344 16.7708 129.094 17.0938C128.844 17.4167 128.646 17.8177 128.5 18.2969C128.354 18.7656 128.281 19.3125 128.281 19.9375C128.281 20.5417 128.323 21.0417 128.406 21.4375C128.5 21.8333 128.62 22.151 128.766 22.3906C128.922 22.6198 129.099 22.7812 129.297 22.875C129.495 22.9688 129.703 23.0156 129.922 23.0156C130.193 23.0156 130.448 22.9479 130.688 22.8125C130.927 22.6667 131.135 22.4844 131.312 22.2656C131.49 22.0469 131.63 21.8021 131.734 21.5312C131.839 21.2604 131.891 20.9896 131.891 20.7188V16.9062ZM129.406 10.0625C129.052 10.0625 128.724 10.1042 128.422 10.1875C128.12 10.2708 127.859 10.375 127.641 10.5C127.422 10.625 127.25 10.7656 127.125 10.9219C127 11.0677 126.938 11.2083 126.938 11.3438C126.938 11.5 127.016 11.6146 127.172 11.6875C127.339 11.75 127.521 11.8281 127.719 11.9219C127.917 12.0052 128.094 12.1302 128.25 12.2969C128.417 12.4531 128.5 12.6979 128.5 13.0312C128.5 13.25 128.453 13.4531 128.359 13.6406C128.276 13.8177 128.156 13.9792 128 14.125C127.854 14.2604 127.677 14.3698 127.469 14.4531C127.271 14.526 127.062 14.5625 126.844 14.5625C126.26 14.5625 125.786 14.3646 125.422 13.9688C125.068 13.5729 124.891 13.0469 124.891 12.3906C124.891 11.7552 125.057 11.2135 125.391 10.7656C125.724 10.3073 126.156 9.93229 126.688 9.64062C127.229 9.34896 127.839 9.13542 128.516 9C129.193 8.85417 129.87 8.78125 130.547 8.78125C131.359 8.78125 132.135 8.86979 132.875 9.04688C133.615 9.22396 134.266 9.50521 134.828 9.89062C135.401 10.276 135.854 10.7656 136.188 11.3594C136.531 11.9531 136.703 12.6719 136.703 13.5156V22.3438C136.703 22.4375 136.708 22.5417 136.719 22.6562C136.729 22.7708 136.755 22.875 136.797 22.9688C136.839 23.0625 136.901 23.1406 136.984 23.2031C137.068 23.2656 137.188 23.2969 137.344 23.2969C137.531 23.2969 137.703 23.2292 137.859 23.0938C138.026 22.9479 138.172 22.8021 138.297 22.6562L138.688 22.9844C138.531 23.2031 138.344 23.4427 138.125 23.7031C137.906 23.9635 137.641 24.2083 137.328 24.4375C137.016 24.6667 136.651 24.8594 136.234 25.0156C135.818 25.1719 135.344 25.25 134.812 25.25C134.156 25.25 133.573 25.0573 133.062 24.6719C132.552 24.276 132.219 23.6719 132.062 22.8594C131.729 23.3073 131.38 23.6823 131.016 23.9844C130.661 24.2865 130.297 24.5312 129.922 24.7188C129.547 24.9062 129.167 25.0417 128.781 25.125C128.406 25.2083 128.026 25.25 127.641 25.25C127.141 25.25 126.656 25.1719 126.188 25.0156C125.719 24.8594 125.297 24.6146 124.922 24.2812C124.557 23.9375 124.26 23.4948 124.031 22.9531C123.812 22.4115 123.703 21.75 123.703 20.9688C123.703 20.0208 123.891 19.2448 124.266 18.6406C124.641 18.0365 125.13 17.5312 125.734 17.125C126.349 16.7083 127.042 16.3542 127.812 16.0625C128.594 15.7708 129.391 15.4635 130.203 15.1406C130.807 14.901 131.245 14.5469 131.516 14.0781C131.797 13.599 131.938 13.1094 131.938 12.6094C131.938 11.8385 131.708 11.224 131.25 10.7656C130.802 10.2969 130.188 10.0625 129.406 10.0625ZM156.141 6.59375C156.141 6.95833 156.198 7.26042 156.312 7.5C156.427 7.72917 156.568 7.92708 156.734 8.09375C156.911 8.25 157.099 8.38021 157.297 8.48438C157.495 8.58854 157.677 8.69792 157.844 8.8125C158.021 8.92708 158.167 9.05729 158.281 9.20312C158.396 9.34896 158.453 9.53646 158.453 9.76562C158.453 10.151 158.318 10.4479 158.047 10.6562C157.776 10.8542 157.464 10.9531 157.109 10.9531C156.776 10.9531 156.464 10.849 156.172 10.6406C155.891 10.4323 155.641 10.151 155.422 9.79688C155.214 9.43229 155.047 9.01042 154.922 8.53125C154.797 8.04167 154.734 7.52604 154.734 6.98438C154.734 6.31771 154.839 5.68229 155.047 5.07812C155.255 4.46354 155.562 3.92708 155.969 3.46875C156.375 3 156.875 2.63021 157.469 2.35938C158.073 2.08854 158.76 1.95312 159.531 1.95312C160.052 1.95312 160.62 2.04167 161.234 2.21875C161.849 2.38542 162.458 2.65625 163.062 3.03125C163.677 3.40625 164.266 3.89062 164.828 4.48438C165.401 5.07812 165.906 5.80208 166.344 6.65625C166.792 7.51042 167.146 8.5 167.406 9.625C167.667 10.75 167.797 12.026 167.797 13.4531C167.797 15.2969 167.521 16.9479 166.969 18.4062C166.427 19.8646 165.688 21.1042 164.75 22.125C163.823 23.1354 162.745 23.9115 161.516 24.4531C160.286 24.9844 158.984 25.25 157.609 25.25C156.245 25.25 154.943 25.0156 153.703 24.5469C152.464 24.0781 151.37 23.3646 150.422 22.4062C149.484 21.4375 148.734 20.2135 148.172 18.7344C147.62 17.2448 147.344 15.4844 147.344 13.4531C147.344 11.8802 147.552 10.4479 147.969 9.15625C148.396 7.86458 148.964 6.71875 149.672 5.71875C150.391 4.71875 151.224 3.88021 152.172 3.20312C153.12 2.51562 154.125 1.99479 155.188 1.64062L155.719 2.3125C155.417 2.61458 155.135 2.92708 154.875 3.25C154.615 3.57292 154.375 3.94271 154.156 4.35938C153.938 4.76562 153.74 5.23958 153.562 5.78125C153.396 6.3125 153.255 6.94271 153.141 7.67188C153.026 8.39062 152.938 9.22396 152.875 10.1719C152.812 11.1198 152.781 12.2135 152.781 13.4531C152.781 15.0573 152.865 16.4271 153.031 17.5625C153.208 18.6979 153.432 19.651 153.703 20.4219C153.984 21.1823 154.297 21.7917 154.641 22.25C154.995 22.6979 155.349 23.0365 155.703 23.2656C156.057 23.4948 156.401 23.6458 156.734 23.7188C157.068 23.7812 157.359 23.8125 157.609 23.8125C157.859 23.8125 158.146 23.7812 158.469 23.7188C158.802 23.6458 159.141 23.4948 159.484 23.2656C159.839 23.0365 160.188 22.6979 160.531 22.25C160.875 21.7917 161.177 21.1823 161.438 20.4219C161.708 19.651 161.927 18.6979 162.094 17.5625C162.26 16.4271 162.344 15.0573 162.344 13.4531C162.344 12.0469 162.281 10.8229 162.156 9.78125C162.031 8.73958 161.865 7.84896 161.656 7.10938C161.458 6.36979 161.224 5.76562 160.953 5.29688C160.693 4.81771 160.417 4.44271 160.125 4.17188C159.844 3.89062 159.557 3.69792 159.266 3.59375C158.984 3.48958 158.724 3.4375 158.484 3.4375C158.109 3.4375 157.776 3.52604 157.484 3.70312C157.193 3.88021 156.948 4.11979 156.75 4.42188C156.552 4.71354 156.401 5.05208 156.297 5.4375C156.193 5.8125 156.141 6.19792 156.141 6.59375ZM177.766 16.9062C177.766 16.6458 177.682 16.4479 177.516 16.3125C177.349 16.1771 177.135 16.1094 176.875 16.1094C176.51 16.1094 176.161 16.1927 175.828 16.3594C175.505 16.526 175.219 16.7708 174.969 17.0938C174.719 17.4167 174.521 17.8177 174.375 18.2969C174.229 18.7656 174.156 19.3125 174.156 19.9375C174.156 20.5417 174.198 21.0417 174.281 21.4375C174.375 21.8333 174.495 22.151 174.641 22.3906C174.797 22.6198 174.974 22.7812 175.172 22.875C175.37 22.9688 175.578 23.0156 175.797 23.0156C176.068 23.0156 176.323 22.9479 176.562 22.8125C176.802 22.6667 177.01 22.4844 177.188 22.2656C177.365 22.0469 177.505 21.8021 177.609 21.5312C177.714 21.2604 177.766 20.9896 177.766 20.7188V16.9062ZM175.281 10.0625C174.927 10.0625 174.599 10.1042 174.297 10.1875C173.995 10.2708 173.734 10.375 173.516 10.5C173.297 10.625 173.125 10.7656 173 10.9219C172.875 11.0677 172.812 11.2083 172.812 11.3438C172.812 11.5 172.891 11.6146 173.047 11.6875C173.214 11.75 173.396 11.8281 173.594 11.9219C173.792 12.0052 173.969 12.1302 174.125 12.2969C174.292 12.4531 174.375 12.6979 174.375 13.0312C174.375 13.25 174.328 13.4531 174.234 13.6406C174.151 13.8177 174.031 13.9792 173.875 14.125C173.729 14.2604 173.552 14.3698 173.344 14.4531C173.146 14.526 172.938 14.5625 172.719 14.5625C172.135 14.5625 171.661 14.3646 171.297 13.9688C170.943 13.5729 170.766 13.0469 170.766 12.3906C170.766 11.7552 170.932 11.2135 171.266 10.7656C171.599 10.3073 172.031 9.93229 172.562 9.64062C173.104 9.34896 173.714 9.13542 174.391 9C175.068 8.85417 175.745 8.78125 176.422 8.78125C177.234 8.78125 178.01 8.86979 178.75 9.04688C179.49 9.22396 180.141 9.50521 180.703 9.89062C181.276 10.276 181.729 10.7656 182.062 11.3594C182.406 11.9531 182.578 12.6719 182.578 13.5156V22.3438C182.578 22.4375 182.583 22.5417 182.594 22.6562C182.604 22.7708 182.63 22.875 182.672 22.9688C182.714 23.0625 182.776 23.1406 182.859 23.2031C182.943 23.2656 183.062 23.2969 183.219 23.2969C183.406 23.2969 183.578 23.2292 183.734 23.0938C183.901 22.9479 184.047 22.8021 184.172 22.6562L184.562 22.9844C184.406 23.2031 184.219 23.4427 184 23.7031C183.781 23.9635 183.516 24.2083 183.203 24.4375C182.891 24.6667 182.526 24.8594 182.109 25.0156C181.693 25.1719 181.219 25.25 180.688 25.25C180.031 25.25 179.448 25.0573 178.938 24.6719C178.427 24.276 178.094 23.6719 177.938 22.8594C177.604 23.3073 177.255 23.6823 176.891 23.9844C176.536 24.2865 176.172 24.5312 175.797 24.7188C175.422 24.9062 175.042 25.0417 174.656 25.125C174.281 25.2083 173.901 25.25 173.516 25.25C173.016 25.25 172.531 25.1719 172.062 25.0156C171.594 24.8594 171.172 24.6146 170.797 24.2812C170.432 23.9375 170.135 23.4948 169.906 22.9531C169.688 22.4115 169.578 21.75 169.578 20.9688C169.578 20.0208 169.766 19.2448 170.141 18.6406C170.516 18.0365 171.005 17.5312 171.609 17.125C172.224 16.7083 172.917 16.3542 173.688 16.0625C174.469 15.7708 175.266 15.4635 176.078 15.1406C176.682 14.901 177.12 14.5469 177.391 14.0781C177.672 13.599 177.812 13.1094 177.812 12.6094C177.812 11.8385 177.583 11.224 177.125 10.7656C176.677 10.2969 176.062 10.0625 175.281 10.0625ZM174.281 6.76562L178.531 2.65625C178.708 2.5 178.896 2.375 179.094 2.28125C179.292 2.17708 179.49 2.125 179.688 2.125C179.875 2.125 180.052 2.17188 180.219 2.26562C180.385 2.34896 180.531 2.46354 180.656 2.60938C180.781 2.75521 180.88 2.92188 180.953 3.10938C181.026 3.28646 181.062 3.46875 181.062 3.65625C181.062 3.92708 180.969 4.16667 180.781 4.375C180.604 4.57292 180.391 4.72917 180.141 4.84375L174.594 7.20312L174.281 6.76562ZM191.688 10.0312C191.448 10.0312 191.219 10.0625 191 10.125C190.792 10.1875 190.604 10.2917 190.438 10.4375C190.271 10.5729 190.141 10.75 190.047 10.9688C189.953 11.1771 189.906 11.4271 189.906 11.7188C189.906 12.125 190.052 12.5312 190.344 12.9375C190.646 13.3333 191.016 13.75 191.453 14.1875C191.901 14.6146 192.38 15.0625 192.891 15.5312C193.411 15.9896 193.891 16.4792 194.328 17C194.776 17.5104 195.146 18.0573 195.438 18.6406C195.74 19.224 195.891 19.849 195.891 20.5156C195.891 21.2656 195.76 21.9323 195.5 22.5156C195.25 23.099 194.885 23.5938 194.406 24C193.938 24.4062 193.365 24.7188 192.688 24.9375C192.021 25.1458 191.276 25.25 190.453 25.25C189.734 25.25 189.083 25.151 188.5 24.9531C187.917 24.7448 187.396 24.4948 186.938 24.2031C186.49 23.901 186.104 23.5833 185.781 23.25C185.458 22.9167 185.208 22.6146 185.031 22.3438L185.578 21.9531C185.714 22.1094 185.885 22.2812 186.094 22.4688C186.302 22.6458 186.531 22.8125 186.781 22.9688C187.042 23.125 187.318 23.2552 187.609 23.3594C187.901 23.4531 188.198 23.5 188.5 23.5C189.25 23.5 189.865 23.3229 190.344 22.9688C190.823 22.6042 191.062 22.0677 191.062 21.3594C191.062 20.9635 190.932 20.5573 190.672 20.1406C190.411 19.7135 190.083 19.276 189.688 18.8281C189.292 18.3802 188.865 17.9167 188.406 17.4375C187.948 16.9583 187.521 16.4635 187.125 15.9531C186.729 15.4427 186.401 14.9167 186.141 14.375C185.88 13.8333 185.75 13.2708 185.75 12.6875C185.75 12.0312 185.88 11.4583 186.141 10.9688C186.411 10.4792 186.766 10.0729 187.203 9.75C187.651 9.42708 188.156 9.1875 188.719 9.03125C189.292 8.86458 189.88 8.78125 190.484 8.78125C191.182 8.78125 191.818 8.84375 192.391 8.96875C192.964 9.09375 193.453 9.28646 193.859 9.54688C194.276 9.79688 194.594 10.1146 194.812 10.5C195.042 10.8854 195.156 11.3333 195.156 11.8438C195.156 12.2396 195.026 12.5833 194.766 12.875C194.505 13.1667 194.141 13.3125 193.672 13.3125C193.224 13.3125 192.88 13.2188 192.641 13.0312C192.411 12.8333 192.297 12.5677 192.297 12.2344C192.297 12.0156 192.349 11.8438 192.453 11.7188C192.568 11.5938 192.693 11.4948 192.828 11.4219C192.964 11.3385 193.083 11.2708 193.188 11.2188C193.302 11.1562 193.359 11.0781 193.359 10.9844C193.359 10.6927 193.203 10.4635 192.891 10.2969C192.578 10.1198 192.177 10.0312 191.688 10.0312ZM203.781 23.5938C203.781 23.7292 203.755 23.8958 203.703 24.0938C203.661 24.2812 203.552 24.4635 203.375 24.6406C203.208 24.8073 202.964 24.9479 202.641 25.0625C202.318 25.1875 201.88 25.25 201.328 25.25C200.776 25.25 200.344 25.1823 200.031 25.0469C199.719 24.9219 199.484 24.7708 199.328 24.5938C199.172 24.4167 199.073 24.2344 199.031 24.0469C199 23.8594 198.984 23.7083 198.984 23.5938V11.5312C198.984 11.2292 198.911 10.9688 198.766 10.75C198.63 10.5208 198.396 10.4062 198.062 10.4062C197.885 10.4062 197.734 10.4375 197.609 10.5C197.484 10.5625 197.349 10.651 197.203 10.7656L196.875 10.375C197.115 10.1771 197.38 9.98438 197.672 9.79688C197.974 9.59896 198.297 9.42708 198.641 9.28125C198.984 9.13542 199.354 9.01562 199.75 8.92188C200.146 8.82812 200.562 8.78125 201 8.78125C201.677 8.78125 202.203 8.875 202.578 9.0625C202.953 9.23958 203.229 9.46354 203.406 9.73438C203.583 9.99479 203.688 10.276 203.719 10.5781C203.76 10.8802 203.781 11.1458 203.781 11.375V23.5938ZM198.5 5.21875C198.5 4.92708 198.562 4.65104 198.688 4.39062C198.823 4.11979 199.005 3.88542 199.234 3.6875C199.474 3.48958 199.745 3.33333 200.047 3.21875C200.359 3.10417 200.698 3.04688 201.062 3.04688C201.417 3.04688 201.745 3.10417 202.047 3.21875C202.359 3.33333 202.63 3.48958 202.859 3.6875C203.089 3.88542 203.266 4.11979 203.391 4.39062C203.526 4.65104 203.594 4.92708 203.594 5.21875C203.594 5.52083 203.526 5.80208 203.391 6.0625C203.266 6.32292 203.089 6.55208 202.859 6.75C202.63 6.9375 202.359 7.08854 202.047 7.20312C201.745 7.31771 201.417 7.375 201.062 7.375C200.698 7.375 200.359 7.31771 200.047 7.20312C199.745 7.08854 199.474 6.9375 199.234 6.75C199.005 6.55208 198.823 6.32292 198.688 6.0625C198.562 5.80208 198.5 5.52083 198.5 5.21875ZM212.75 10.0312C212.51 10.0312 212.281 10.0625 212.062 10.125C211.854 10.1875 211.667 10.2917 211.5 10.4375C211.333 10.5729 211.203 10.75 211.109 10.9688C211.016 11.1771 210.969 11.4271 210.969 11.7188C210.969 12.125 211.115 12.5312 211.406 12.9375C211.708 13.3333 212.078 13.75 212.516 14.1875C212.964 14.6146 213.443 15.0625 213.953 15.5312C214.474 15.9896 214.953 16.4792 215.391 17C215.839 17.5104 216.208 18.0573 216.5 18.6406C216.802 19.224 216.953 19.849 216.953 20.5156C216.953 21.2656 216.823 21.9323 216.562 22.5156C216.312 23.099 215.948 23.5938 215.469 24C215 24.4062 214.427 24.7188 213.75 24.9375C213.083 25.1458 212.339 25.25 211.516 25.25C210.797 25.25 210.146 25.151 209.562 24.9531C208.979 24.7448 208.458 24.4948 208 24.2031C207.552 23.901 207.167 23.5833 206.844 23.25C206.521 22.9167 206.271 22.6146 206.094 22.3438L206.641 21.9531C206.776 22.1094 206.948 22.2812 207.156 22.4688C207.365 22.6458 207.594 22.8125 207.844 22.9688C208.104 23.125 208.38 23.2552 208.672 23.3594C208.964 23.4531 209.26 23.5 209.562 23.5C210.312 23.5 210.927 23.3229 211.406 22.9688C211.885 22.6042 212.125 22.0677 212.125 21.3594C212.125 20.9635 211.995 20.5573 211.734 20.1406C211.474 19.7135 211.146 19.276 210.75 18.8281C210.354 18.3802 209.927 17.9167 209.469 17.4375C209.01 16.9583 208.583 16.4635 208.188 15.9531C207.792 15.4427 207.464 14.9167 207.203 14.375C206.943 13.8333 206.812 13.2708 206.812 12.6875C206.812 12.0312 206.943 11.4583 207.203 10.9688C207.474 10.4792 207.828 10.0729 208.266 9.75C208.714 9.42708 209.219 9.1875 209.781 9.03125C210.354 8.86458 210.943 8.78125 211.547 8.78125C212.245 8.78125 212.88 8.84375 213.453 8.96875C214.026 9.09375 214.516 9.28646 214.922 9.54688C215.339 9.79688 215.656 10.1146 215.875 10.5C216.104 10.8854 216.219 11.3333 216.219 11.8438C216.219 12.2396 216.089 12.5833 215.828 12.875C215.568 13.1667 215.203 13.3125 214.734 13.3125C214.286 13.3125 213.943 13.2188 213.703 13.0312C213.474 12.8333 213.359 12.5677 213.359 12.2344C213.359 12.0156 213.411 11.8438 213.516 11.7188C213.63 11.5938 213.755 11.4948 213.891 11.4219C214.026 11.3385 214.146 11.2708 214.25 11.2188C214.365 11.1562 214.422 11.0781 214.422 10.9844C214.422 10.6927 214.266 10.4635 213.953 10.2969C213.641 10.1198 213.24 10.0312 212.75 10.0312Z" fill="white"/>
</svg>
